<?xml version="1.0" encoding="utf-8"?>
<!-- Generator: Adobe Illustrator 24.0.2, SVG Export Plug-In . SVG Version: 6.00 Build 0)  -->
<svg version="1.1" id="recycleFINAL_xA0_Image_1_" xmlns="http://www.w3.org/2000/svg" xmlns:xlink="http://www.w3.org/1999/xlink"
	 x="0px" y="0px" viewBox="0 0 300 300" style="enable-background:new 0 0 300 300;" xml:space="preserve">
<style type="text/css">
	.st0{display:none;}
</style>
<g>
	<path class="st0" d="M0,0c100,0,200,0,300,0c0,100,0,200,0,300c-100,0-200,0-300,0C0,200,0,100,0,0z M131.59,291.96
		c0.37-2.52,0.69-3.78,0.71-5.03c0.1-6.66,0.2-13.32,0.17-19.98c-0.03-7.91,0.45-8.34,8.43-8.2c17.59,0.3,35.18,0.65,52.77,0.68
		c9.06,0.02,16.32-4.04,21.37-11.63c2.58-3.87,4.82-7.96,7.2-11.96c8.57-14.44,17.18-28.85,25.63-43.35
		c1.34-2.3,1.98-5.02,2.94-7.55c-0.45-0.3-0.89-0.6-1.34-0.91c-5.57,7.04-13.2,7.01-20.97,6.88c-22.73-0.39-45.46-0.65-68.19-0.95
		c-7.3-0.1-14.6-0.21-21.91-0.21c-3.55,0-5.09-1.47-4.94-5.16c0.32-7.82,0.4-15.64,0.52-23.46c0.02-1.21-0.33-2.42-0.65-4.55
		c-2.14,1.6-3.68,2.5-4.92,3.72c-19.95,19.54-39.86,39.13-59.79,58.69c-4.47,4.39-4.48,4.64-0.15,9.08
		c16.37,16.78,32.71,33.59,49.11,50.33C121.84,282.74,126.3,286.86,131.59,291.96z M17.55,43.38c2.45,1.78,4.03,3.14,5.8,4.19
		c6,3.55,12.04,7.02,18.11,10.44c3.33,1.88,4.25,3.82,2.02,7.56c-8.83,14.86-17.12,30.04-26.04,44.84
		c-6.32,10.48-6.48,20.51-0.34,31.03c9.97,17.08,19.63,34.35,29.58,51.44c1.64,2.82,4.15,5.14,6.26,7.69
		c0.44-0.22,0.87-0.43,1.31-0.65c-3.79-7.7-0.99-14.2,2.96-20.67c4.68-7.66,9.07-15.49,13.56-23.26
		c10.81-18.7,21.69-37.37,32.36-56.16c2.11-3.72,4.22-3.95,7.58-1.85c6.19,3.86,12.52,7.51,18.82,11.19
		c1.35,0.79,2.84,1.35,5.26,2.47c-0.31-2.64-0.3-4.25-0.7-5.76c-4.95-18.64-9.95-37.27-14.96-55.9c-2.42-9-4.88-17.98-7.29-26.97
		c-0.97-3.64-2.49-5.53-6.71-3.59c-2.82,1.3-6.07,1.64-9.11,2.45c-24.68,6.57-49.36,13.14-74.03,19.74
		C20.78,41.91,19.66,42.51,17.55,43.38z M171.5,138.47c9.78,2.69,18.2,5,26.61,7.33c20,5.53,40,11.03,59.98,16.65
		c5.46,1.54,6.24,1.3,7.7-3.99c7.56-27.44,15.13-54.88,22.66-82.34c0.37-1.33,0.36-2.77,0.59-4.75c-1.84,0.48-3.03,0.55-3.96,1.08
		c-6.65,3.76-13.34,7.45-19.82,11.49c-3.91,2.45-5.97,1.75-8.21-2.34c-8.64-15.74-17.62-31.31-26.49-46.92
		c-5.33-9.38-13.46-13.84-24.18-13.89c-20.76-0.1-41.52-0.32-62.28-0.4c-1.97-0.01-3.94,0.57-5.1,0.75
		c4.55,5.01,9.87,9.19,13.03,14.63c15.61,26.9,30.6,54.16,45.94,81.21c1.67,2.95,1.06,4.53-1.63,6.02
		c-6.68,3.7-13.35,7.42-19.95,11.26C174.88,135.15,173.67,136.57,171.5,138.47z"/>
	<path d="M131.59,291.96c-5.29-5.11-9.75-9.22-13.99-13.55c-16.41-16.74-32.74-33.56-49.11-50.33c-4.34-4.44-4.33-4.69,0.15-9.08
		c19.93-19.56,39.84-39.15,59.79-58.69c1.24-1.21,2.78-2.12,4.92-3.72c0.32,2.12,0.67,3.34,0.65,4.55
		c-0.11,7.82-0.2,15.65-0.52,23.46c-0.15,3.69,1.39,5.16,4.94,5.16c7.3,0,14.6,0.12,21.91,0.21c22.73,0.3,45.46,0.56,68.19,0.95
		c7.76,0.13,15.39,0.16,20.97-6.88c0.45,0.3,0.89,0.6,1.34,0.91c-0.96,2.53-1.6,5.24-2.94,7.55c-8.46,14.5-17.07,28.91-25.63,43.35
		c-2.38,4-4.62,8.09-7.2,11.96c-5.06,7.6-12.31,11.65-21.37,11.63c-17.59-0.03-35.18-0.38-52.77-0.68c-7.98-0.14-8.46,0.3-8.43,8.2
		c0.03,6.66-0.06,13.32-0.17,19.98C132.28,288.19,131.96,289.44,131.59,291.96z M150.02,221.11c0.24-0.45,0.48-0.9,0.72-1.35
		c-2.73-1.98-5.4-5.56-8.2-5.66c-14.93-0.57-29.89-0.35-44.84-0.22c-4.68,0.04-6.21,3.1-6.26,9.92c-0.04,4.49,2.01,5.68,6.11,5.67
		c16.77-0.02,33.54,0.21,50.32,0.29c18.77,0.09,37.54,0.04,56.31,0.25c4.24,0.05,5.78-1.58,5.28-5.63
		c-0.45-3.63-3.15-3.27-5.64-3.27C185.89,221.1,167.95,221.11,150.02,221.11z"/>
	<path d="M17.55,43.38c2.11-0.86,3.23-1.47,4.43-1.79c24.67-6.6,49.35-13.17,74.03-19.74c3.05-0.81,6.3-1.14,9.11-2.45
		c4.21-1.95,5.73-0.05,6.71,3.59c2.41,9,4.88,17.98,7.29,26.97c5,18.63,10.01,37.26,14.96,55.9c0.4,1.51,0.39,3.12,0.7,5.76
		c-2.41-1.12-3.9-1.68-5.26-2.47c-6.3-3.68-12.63-7.32-18.82-11.19c-3.36-2.1-5.47-1.86-7.58,1.85
		c-10.67,18.79-21.54,37.46-32.36,56.16c-4.49,7.77-8.88,15.6-13.56,23.26c-3.95,6.47-6.75,12.98-2.96,20.67
		c-0.44,0.22-0.87,0.43-1.31,0.65c-2.11-2.55-4.61-4.87-6.26-7.69c-9.96-17.09-19.61-34.35-29.58-51.44
		c-6.14-10.52-5.97-20.56,0.34-31.03c8.92-14.8,17.21-29.99,26.04-44.84c2.22-3.74,1.31-5.69-2.02-7.56
		c-6.07-3.42-12.11-6.9-18.11-10.44C21.58,46.52,20,45.16,17.55,43.38z M86.25,41.77c-5.93-1.49-7.31-1.06-9.74,3.15
		c-3.49,6.05-7.28,11.98-10.1,18.34c-1.45,3.28-2.4,7.91-1.19,10.98c1.8,4.56,0.21,7.48-1.75,10.96
		c-9.88,17.53-19.7,35.09-29.5,52.67c-1.63,2.93-2.58,5.93,1.12,8.18c3.92,2.38,5.48-0.15,7.19-3.22
		c10.26-18.46,20.57-36.89,31.1-55.19c1.11-1.93,3.76-3.01,5.77-4.38c3.07-2.08,7.14-3.41,9.11-6.23
		c4.44-6.38,8.02-13.4,11.62-20.34c1.75-3.38,1.24-6.65-2.86-8.94c-4.45,7.73-8.76,15.21-13.07,22.69
		c-0.51-0.26-1.02-0.52-1.53-0.78c0.49-1.24,0.86-2.55,1.5-3.72c3.05-5.54,6.13-11.05,9.28-16.53c1.34-2.33,2.5-4.33-0.83-6.15
		c-3.41-1.86-4.37,0.53-5.61,2.74c-3,5.37-5.98,10.76-9.02,16.11c-0.73,1.28-1.68,2.43-2.53,3.64c-0.52-0.31-1.03-0.61-1.55-0.92
		C77.83,57.2,82,49.55,86.25,41.77z"/>
	<path d="M171.5,138.47c2.17-1.89,3.38-3.31,4.89-4.2c6.6-3.84,13.27-7.56,19.95-11.26c2.69-1.49,3.3-3.06,1.63-6.02
		c-15.34-27.06-30.33-54.32-45.94-81.21c-3.16-5.45-8.49-9.63-13.03-14.63c1.17-0.18,3.14-0.76,5.1-0.75
		c20.76,0.09,41.52,0.31,62.28,0.4c10.72,0.05,18.85,4.51,24.18,13.89c8.88,15.61,17.85,31.18,26.49,46.92
		c2.24,4.08,4.3,4.78,8.21,2.34c6.47-4.05,13.17-7.73,19.82-11.49c0.93-0.53,2.12-0.59,3.96-1.08c-0.23,1.98-0.22,3.41-0.59,4.75
		c-7.53,27.45-15.09,54.89-22.66,82.34c-1.46,5.3-2.24,5.53-7.7,3.99c-19.97-5.63-39.98-11.12-59.98-16.65
		C189.7,143.47,181.28,141.16,171.5,138.47z M225.1,103.49c-6,8.96-6.05,10.35-0.91,19.38c1.56,2.74,3.41,5.35,4.69,8.22
		c2.78,6.2,7.66,7.67,13.86,7.05c11.95-1.2,17.9-12.64,11.82-22.92c-2.03-3.43-4.16-6.81-6.02-10.33c-2.28-4.31-5.72-6.4-10.52-5.91
		c-3.02,0.31-4.69-0.78-6.25-3.48c-11.54-20-23.35-39.85-34.93-59.82c-1.9-3.28-3.95-4.84-7.55-2.85c-3.81,2.1-3.03,4.61-1.11,7.83
		C200.55,61.51,212.77,82.46,225.1,103.49z"/>
</g>
</svg>
